<mxfile host="app.diagrams.net" agent="Mozilla/5.0 (Windows NT 10.0; Win64; x64) AppleWebKit/537.36 (KHTML, like Gecko) Chrome/130.0.0.0 Safari/537.36" version="24.8.4">
  <diagram name="Page-1" id="3rPeDbRFZiopWizlCy6h">
    <mxGraphModel dx="2100" dy="2144" grid="1" gridSize="10" guides="1" tooltips="1" connect="1" arrows="1" fold="1" page="1" pageScale="1" pageWidth="850" pageHeight="1100" math="0" shadow="0">
      <***REMOVED***>
        <mxCell id="0" />
        <mxCell id="1" parent="0" />
        <mxCell id="tca6Jceo4tT09vgQ5uRJ-35" value="" style="rounded=0;whiteSpace=wrap;html=1;dashed=1;strokeWidth=3;" vertex="1" parent="1">
          <mxGeometry x="310" y="470" width="880" height="490" as="geometry" />
        </mxCell>
        <mxCell id="tca6Jceo4tT09vgQ5uRJ-34" value="" style="rounded=0;whiteSpace=wrap;html=1;dashed=1;strokeWidth=3;" vertex="1" parent="1">
          <mxGeometry x="310" y="-40" width="660" height="490" as="geometry" />
        </mxCell>
        <mxCell id="tca6Jceo4tT09vgQ5uRJ-3" value="" style="edgeStyle=orthogonalEdgeStyle;rounded=0;orthogonalLoop=1;jettySize=auto;html=1;" edge="1" parent="1" source="tca6Jceo4tT09vgQ5uRJ-1" target="tca6Jceo4tT09vgQ5uRJ-2">
          <mxGeometry relative="1" as="geometry" />
        </mxCell>
        <mxCell id="tca6Jceo4tT09vgQ5uRJ-1" value="Web Application" style="shape=hexagon;perimeter=hexagonPerimeter2;whiteSpace=wrap;html=1;fixedSize=1;fillColor=#ffe6cc;strokeColor=#d79b00;" vertex="1" parent="1">
          <mxGeometry x="150" y="210" width="120" height="80" as="geometry" />
        </mxCell>
        <mxCell id="tca6Jceo4tT09vgQ5uRJ-5" value="" style="edgeStyle=orthogonalEdgeStyle;rounded=0;orthogonalLoop=1;jettySize=auto;html=1;" edge="1" parent="1" source="tca6Jceo4tT09vgQ5uRJ-2" target="tca6Jceo4tT09vgQ5uRJ-4">
          <mxGeometry relative="1" as="geometry" />
        </mxCell>
        <mxCell id="tca6Jceo4tT09vgQ5uRJ-7" style="edgeStyle=orthogonalEdgeStyle;rounded=0;orthogonalLoop=1;jettySize=auto;html=1;entryX=0;entryY=0.5;entryDx=0;entryDy=0;" edge="1" parent="1" source="tca6Jceo4tT09vgQ5uRJ-2" target="tca6Jceo4tT09vgQ5uRJ-6">
          <mxGeometry relative="1" as="geometry" />
        </mxCell>
        <mxCell id="tca6Jceo4tT09vgQ5uRJ-2" value="API Gateway" style="rounded=1;whiteSpace=wrap;html=1;fillColor=#dae8fc;strokeColor=#6c8ebf;" vertex="1" parent="1">
          <mxGeometry x="350" y="70" width="120" height="360" as="geometry" />
        </mxCell>
        <mxCell id="tca6Jceo4tT09vgQ5uRJ-4" value="App server" style="shape=hexagon;perimeter=hexagonPerimeter2;whiteSpace=wrap;html=1;fixedSize=1;rounded=1;" vertex="1" parent="1">
          <mxGeometry x="560" y="90" width="120" height="80" as="geometry" />
        </mxCell>
        <mxCell id="tca6Jceo4tT09vgQ5uRJ-6" value="App server (scale if needed)" style="shape=hexagon;perimeter=hexagonPerimeter2;whiteSpace=wrap;html=1;fixedSize=1;rounded=1;dashed=1;strokeWidth=2;" vertex="1" parent="1">
          <mxGeometry x="560" y="320" width="120" height="80" as="geometry" />
        </mxCell>
        <mxCell id="tca6Jceo4tT09vgQ5uRJ-8" value="3rd party" style="ellipse;shape=cloud;whiteSpace=wrap;html=1;rounded=1;" vertex="1" parent="1">
          <mxGeometry x="790" y="-20" width="120" height="80" as="geometry" />
        </mxCell>
        <mxCell id="tca6Jceo4tT09vgQ5uRJ-10" value="db instance" style="shape=cylinder3;whiteSpace=wrap;html=1;boundedLbl=1;backgroundOutline=1;size=15;" vertex="1" parent="1">
          <mxGeometry x="805" y="80" width="90" height="100" as="geometry" />
        </mxCell>
        <mxCell id="tca6Jceo4tT09vgQ5uRJ-15" style="edgeStyle=orthogonalEdgeStyle;rounded=0;orthogonalLoop=1;jettySize=auto;html=1;exitX=1;exitY=0.5;exitDx=0;exitDy=0;entryX=0;entryY=0.5;entryDx=0;entryDy=0;entryPerimeter=0;" edge="1" parent="1" source="tca6Jceo4tT09vgQ5uRJ-4" target="tca6Jceo4tT09vgQ5uRJ-10">
          <mxGeometry relative="1" as="geometry" />
        </mxCell>
        <mxCell id="tca6Jceo4tT09vgQ5uRJ-16" value="Object Storage S3" style="shape=cylinder3;whiteSpace=wrap;html=1;boundedLbl=1;backgroundOutline=1;size=15;" vertex="1" parent="1">
          <mxGeometry x="810" y="220" width="80" height="140" as="geometry" />
        </mxCell>
        <mxCell id="tca6Jceo4tT09vgQ5uRJ-19" style="edgeStyle=orthogonalEdgeStyle;rounded=0;orthogonalLoop=1;jettySize=auto;html=1;exitX=1;exitY=0.5;exitDx=0;exitDy=0;" edge="1" parent="1" source="tca6Jceo4tT09vgQ5uRJ-17" target="tca6Jceo4tT09vgQ5uRJ-18">
          <mxGeometry relative="1" as="geometry" />
        </mxCell>
        <mxCell id="tca6Jceo4tT09vgQ5uRJ-17" value="Users" style="ellipse;whiteSpace=wrap;html=1;aspect=fixed;fillColor=#ffe6cc;strokeColor=#d79b00;" vertex="1" parent="1">
          <mxGeometry x="170" y="550" width="80" height="80" as="geometry" />
        </mxCell>
        <mxCell id="tca6Jceo4tT09vgQ5uRJ-21" value="" style="edgeStyle=orthogonalEdgeStyle;rounded=0;orthogonalLoop=1;jettySize=auto;html=1;" edge="1" parent="1" source="tca6Jceo4tT09vgQ5uRJ-18" target="tca6Jceo4tT09vgQ5uRJ-20">
          <mxGeometry relative="1" as="geometry" />
        </mxCell>
        <mxCell id="tca6Jceo4tT09vgQ5uRJ-18" value="Route 53" style="shape=parallelogram;perimeter=parallelogramPerimeter;whiteSpace=wrap;html=1;fixedSize=1;fillColor=#ffe6cc;strokeColor=#d79b00;" vertex="1" parent="1">
          <mxGeometry x="350" y="480" width="120" height="220" as="geometry" />
        </mxCell>
        <mxCell id="tca6Jceo4tT09vgQ5uRJ-29" value="" style="edgeStyle=orthogonalEdgeStyle;rounded=0;orthogonalLoop=1;jettySize=auto;html=1;" edge="1" parent="1" source="tca6Jceo4tT09vgQ5uRJ-20" target="tca6Jceo4tT09vgQ5uRJ-28">
          <mxGeometry relative="1" as="geometry" />
        </mxCell>
        <mxCell id="tca6Jceo4tT09vgQ5uRJ-20" value="Cloud Front" style="shape=parallelogram;perimeter=parallelogramPerimeter;whiteSpace=wrap;html=1;fixedSize=1;fillColor=#ffe6cc;strokeColor=#d79b00;" vertex="1" parent="1">
          <mxGeometry x="550" y="480" width="120" height="220" as="geometry" />
        </mxCell>
        <mxCell id="tca6Jceo4tT09vgQ5uRJ-25" style="edgeStyle=orthogonalEdgeStyle;rounded=0;orthogonalLoop=1;jettySize=auto;html=1;entryX=0.16;entryY=0.55;entryDx=0;entryDy=0;entryPerimeter=0;" edge="1" parent="1" source="tca6Jceo4tT09vgQ5uRJ-4" target="tca6Jceo4tT09vgQ5uRJ-8">
          <mxGeometry relative="1" as="geometry">
            <Array as="points">
              <mxPoint x="740" y="130" />
              <mxPoint x="740" y="44" />
            </Array>
          </mxGeometry>
        </mxCell>
        <mxCell id="tca6Jceo4tT09vgQ5uRJ-26" style="edgeStyle=orthogonalEdgeStyle;rounded=0;orthogonalLoop=1;jettySize=auto;html=1;entryX=0;entryY=0;entryDx=0;entryDy=52.5;entryPerimeter=0;" edge="1" parent="1" source="tca6Jceo4tT09vgQ5uRJ-4" target="tca6Jceo4tT09vgQ5uRJ-16">
          <mxGeometry relative="1" as="geometry">
            <Array as="points">
              <mxPoint x="740" y="130" />
              <mxPoint x="740" y="273" />
            </Array>
          </mxGeometry>
        </mxCell>
        <mxCell id="tca6Jceo4tT09vgQ5uRJ-27" style="edgeStyle=orthogonalEdgeStyle;rounded=0;orthogonalLoop=1;jettySize=auto;html=1;exitX=1;exitY=0.25;exitDx=0;exitDy=0;entryX=0;entryY=1;entryDx=0;entryDy=-15;entryPerimeter=0;" edge="1" parent="1" source="tca6Jceo4tT09vgQ5uRJ-20" target="tca6Jceo4tT09vgQ5uRJ-16">
          <mxGeometry relative="1" as="geometry" />
        </mxCell>
        <mxCell id="tca6Jceo4tT09vgQ5uRJ-31" value="" style="edgeStyle=orthogonalEdgeStyle;rounded=0;orthogonalLoop=1;jettySize=auto;html=1;" edge="1" parent="1" source="tca6Jceo4tT09vgQ5uRJ-28" target="tca6Jceo4tT09vgQ5uRJ-30">
          <mxGeometry relative="1" as="geometry" />
        </mxCell>
        <mxCell id="tca6Jceo4tT09vgQ5uRJ-33" style="edgeStyle=orthogonalEdgeStyle;rounded=0;orthogonalLoop=1;jettySize=auto;html=1;entryX=0;entryY=0.5;entryDx=0;entryDy=0;" edge="1" parent="1" source="tca6Jceo4tT09vgQ5uRJ-28" target="tca6Jceo4tT09vgQ5uRJ-32">
          <mxGeometry relative="1" as="geometry" />
        </mxCell>
        <mxCell id="tca6Jceo4tT09vgQ5uRJ-28" value="Load Balancer (LB)" style="shape=parallelogram;perimeter=parallelogramPerimeter;whiteSpace=wrap;html=1;fixedSize=1;fillColor=#ffe6cc;strokeColor=#d79b00;" vertex="1" parent="1">
          <mxGeometry x="790" y="640" width="140" height="220" as="geometry" />
        </mxCell>
        <mxCell id="tca6Jceo4tT09vgQ5uRJ-30" value="Front Web App Server" style="shape=hexagon;perimeter=hexagonPerimeter2;whiteSpace=wrap;html=1;fixedSize=1;fillColor=#ffe6cc;strokeColor=#d79b00;" vertex="1" parent="1">
          <mxGeometry x="1050" y="620" width="120" height="80" as="geometry" />
        </mxCell>
        <mxCell id="tca6Jceo4tT09vgQ5uRJ-32" value="Front Web App Server" style="shape=hexagon;perimeter=hexagonPerimeter2;whiteSpace=wrap;html=1;fixedSize=1;fillColor=#ffe6cc;strokeColor=#d79b00;" vertex="1" parent="1">
          <mxGeometry x="1050" y="790" width="120" height="80" as="geometry" />
        </mxCell>
      </***REMOVED***>
    </mxGraphModel>
  </diagram>
</mxfile>
